# xmcd
#
# Track frame offsets:
#	150
#	17867
#	36277
#	52364
#	65304
#	81909
#	99716
#	117023
#	133320
#	152430
#	171065
#	186580
#	202190
#
# Disc length: 2901 seconds
#
# Revision: 3
# Processed by: cddbd v1.5.2PL0 Copyright (c) Steve Scherf et al.
# Submitted via: EZCDAudioConverter 2.0.7.1
#
DISCID=bf0b530d
DTITLE=Анжелика Варум - Осенний джаз
DYEAR=1995
DGENRE=Pop
TTITLE0=Осенний джаз
TTITLE1=Москва река
TTITLE2=Good bye my love  good bye
TTITLE3=Я свечу зажгла
TTITLE4=Фантазия
TTITLE5=Отдыхаю
TTITLE6=Закрой рояль
TTITLE7=Кордебалет
TTITLE8=Птичка
TTITLE9=Ночной мотель
TTITLE10=Городок
TTITLE11=Человек свисток
TTITLE12=Будет лето
EXTD=
EXTT0=
EXTT1=
EXTT2=
EXTT3=
EXTT4=
EXTT5=
EXTT6=
EXTT7=
EXTT8=
EXTT9=
EXTT10=
EXTT11=
EXTT12=
PLAYORDER=
